<?xml version="1.0" encoding="UTF-8"?>
<!DOCTYPE svg PUBLIC "-//W3C//DTD SVG 1.1//EN" "http://www.w3.org/Graphics/SVG/1.1/DTD/svg11.dtd">
<svg xmlns="http://www.w3.org/2000/svg" version="1.1" width="79px" height="49px" style="shape-rendering:geometricPrecision; text-rendering:geometricPrecision; image-rendering:optimizeQuality; fill-rule:evenodd; clip-rule:evenodd" xmlns:xlink="http://www.w3.org/1999/xlink">
<g><path style="opacity:0.522" fill="#fefefe" d="M 65.5,48.5 C 64.5,48.5 63.5,48.5 62.5,48.5C 61.3958,44.2186 60.3958,39.8852 59.5,35.5C 59.9569,34.7025 60.6236,34.3691 61.5,34.5C 59.9095,32.3674 57.9095,30.7007 55.5,29.5C 54.5859,34.2579 51.9192,37.7579 47.5,40C 41.9922,40.4173 36.4922,40.9173 31,41.5C 29.1063,41.4202 27.2729,41.0869 25.5,40.5C 22.7315,42.6061 19.7315,44.2728 16.5,45.5C 15.8333,45.1667 15.1667,44.8333 14.5,44.5C 19.8943,42.9351 20.561,40.4351 16.5,37C 18.9395,35.6195 20.7729,36.4529 22,39.5C 22.7172,38.9558 23.2172,38.2891 23.5,37.5C 19.0661,33.7343 14.3995,33.5676 9.5,37C 8.91029,38.5095 8.24362,40.0095 7.5,41.5C 6.16667,39.5 6.16667,37.5 7.5,35.5C 9.16667,34.6667 10.8333,33.8333 12.5,33C 9.82555,28.7783 9.15888,24.2783 10.5,19.5C 13.5027,18.9149 16.5027,18.2482 19.5,17.5C 20.6087,16.0353 20.1087,15.0353 18,14.5C 14.7401,17.3966 11.0734,18.3966 7,17.5C 5.96388,14.3201 6.79722,11.8201 9.5,10C 7.20553,7.28162 6.20553,4.11495 6.5,0.5C 8.85684,0.336688 11.1902,0.503354 13.5,1C 14.6667,1.5 15.5,2.33333 16,3.5C 21.4778,-1.35411 24.8111,-0.354115 26,6.5C 29.2268,4.06149 32.5601,4.06149 36,6.5C 37.2915,4.7513 38.4582,2.91796 39.5,1C 42.1667,0.333333 44.8333,0.333333 47.5,1C 50.0968,4.71931 53.2635,7.88597 57,10.5C 58.689,7.10851 60.8557,4.10851 63.5,1.5C 63.8333,3.5 64.1667,5.5 64.5,7.5C 66.2951,6.73491 68.1284,6.06824 70,5.5C 70.383,7.03696 71.2164,8.3703 72.5,9.5C 71.9264,11.0589 71.2598,12.5589 70.5,14C 67.2198,14.056 64.2198,14.8893 61.5,16.5C 67.049,23.6919 70.7157,31.6919 72.5,40.5C 71.325,40.281 70.325,40.6143 69.5,41.5C 70.3094,43.0709 70.6427,44.7376 70.5,46.5C 68.302,46.1201 66.6354,46.7868 65.5,48.5 Z M 12.5,7.5 C 9.63864,6.76296 8.63864,5.09629 9.5,2.5C 10.3199,4.31884 11.3199,5.9855 12.5,7.5 Z M 64.5,27.5 C 62.0365,25.5389 59.7032,23.3722 57.5,21C 56.8333,20.3333 56.1667,20.3333 55.5,21C 58.0366,26.3701 62.0366,30.2034 67.5,32.5C 68.1272,33.4168 68.4606,34.4168 68.5,35.5C 59.0819,30.0802 52.0819,22.4135 47.5,12.5C 47.1667,12.8333 46.8333,13.1667 46.5,13.5C 47.8462,16.8546 49.1796,20.1879 50.5,23.5C 46.5034,19.9979 44.5034,15.4979 44.5,10C 43.3144,8.58786 41.981,7.4212 40.5,6.5C 43.7307,5.90222 44.064,4.73556 41.5,3C 42.8333,2.33333 44.1667,2.33333 45.5,3C 49.1509,6.93018 52.9843,10.7635 57,14.5C 60.0289,18.5615 62.5289,22.8949 64.5,27.5 Z M 15.5,6.5 C 16.3094,7.46872 17.3094,8.30206 18.5,9C 16.4078,9.95254 16.0745,11.2859 17.5,13C 16.9056,13.4643 16.2389,13.631 15.5,13.5C 15.1075,11.7162 14.4408,10.0495 13.5,8.5C 14.8333,8.5 15.5,7.83333 15.5,6.5 Z M 24.5,8.5 C 24.4312,11.0842 23.2645,13.0842 21,14.5C 20.5,13.5 20,12.5 19.5,11.5C 21.3188,10.6801 22.9855,9.68011 24.5,8.5 Z M 27.5,8.5 C 28.766,9.0899 30.0993,9.5899 31.5,10C 28.6552,13.8636 26.3219,18.0303 24.5,22.5C 22.796,23.8229 21.4627,23.4896 20.5,21.5C 21.5926,18.3117 23.426,15.645 26,13.5C 26.6077,11.8455 27.1077,10.1789 27.5,8.5 Z M 35.5,8.5 C 37.3786,8.39318 37.7119,8.89318 36.5,10C 38.4727,10.4955 40.4727,10.6621 42.5,10.5C 42.5751,13.2062 42.9084,15.8728 43.5,18.5C 41.1667,18.5 38.8333,18.5 36.5,18.5C 37.1408,17.5178 37.8075,16.5178 38.5,15.5C 37.9747,14.8076 37.3081,14.3076 36.5,14C 37.7112,13.1072 37.7112,12.2739 36.5,11.5C 35.3914,12.5896 34.3914,12.5896 33.5,11.5C 34.6119,10.7348 35.2786,9.73485 35.5,8.5 Z M 67.5,9.5 C 64.9906,10.9213 62.6572,12.5879 60.5,14.5C 59.7326,13.828 59.0659,12.9947 58.5,12C 59.7014,11.0975 60.5348,9.93081 61,8.5C 63.0408,9.42308 65.2075,9.75642 67.5,9.5 Z M 9.5,12.5 C 13.8132,15.0021 13.4799,15.8354 8.5,15C 9.25244,14.3292 9.58577,13.4959 9.5,12.5 Z M 34.5,23.5 C 33.9094,24.1515 33.2427,24.8182 32.5,25.5C 36.7154,26.7977 40.8821,26.7977 45,25.5C 44.9827,27.5676 43.9827,29.2343 42,30.5C 41.5172,29.552 41.3505,28.552 41.5,27.5C 36.8191,27.9891 32.1525,28.1558 27.5,28C 29.0016,27.4169 30.3349,26.5836 31.5,25.5C 29.3835,24.5307 27.3835,24.864 25.5,26.5C 28.1096,22.9419 29.9429,18.9419 31,14.5C 32.8397,17.5234 34.0063,20.5234 34.5,23.5 Z M 36.5,18.5 C 37.1522,19.7251 38.3189,20.3917 40,20.5C 41.4357,20.4411 42.769,20.1078 44,19.5C 44.6622,20.9839 45.4955,22.3172 46.5,23.5C 42.5213,24.6251 38.5213,24.6251 34.5,23.5C 34.7959,21.597 35.4625,19.9303 36.5,18.5 Z M 17.5,20.5 C 16.8065,23.8384 15.1399,24.3384 12.5,22C 13.9047,20.7308 15.5714,20.2308 17.5,20.5 Z M 46.5,23.5 C 47.5,23.8333 48.1667,24.5 48.5,25.5C 47.1667,25.5 46.5,24.8333 46.5,23.5 Z M 50.5,23.5 C 52.914,24.9108 54.5806,26.9108 55.5,29.5C 53.3763,30.0312 51.8763,31.3645 51,33.5C 50.6667,32.8333 50.3333,32.1667 50,31.5C 49.2825,32.4506 48.4491,32.6172 47.5,32C 48.6853,30.647 50.0186,29.4803 51.5,28.5C 50.675,27.6143 49.675,27.281 48.5,27.5C 48.5,26.8333 48.5,26.1667 48.5,25.5C 49.8333,25.5 50.5,24.8333 50.5,23.5 Z M 13.5,26.5 C 14.3864,25.2241 15.3864,25.2241 16.5,26.5C 15.5754,27.5624 14.5754,27.5624 13.5,26.5 Z M 22.5,26.5 C 23.5,26.5 24.5,26.5 25.5,26.5C 24.7659,27.7079 24.4326,29.0413 24.5,30.5C 23.3263,29.4863 22.6596,28.153 22.5,26.5 Z M 17.5,29.5 C 18.2376,27.2398 19.2376,27.0731 20.5,29C 19.552,29.4828 18.552,29.6495 17.5,29.5 Z M 17.5,29.5 C 16.6397,31.9701 15.3064,32.1368 13.5,30C 14.7932,29.51 16.1266,29.3433 17.5,29.5 Z M 39.5,32.5 C 34.6551,31.6575 34.4884,30.6575 39,29.5C 39.4828,30.448 39.6495,31.448 39.5,32.5 Z M 23.5,33.5 C 22.0783,33.2914 20.745,32.7914 19.5,32C 21.3524,31.2274 22.6857,31.7274 23.5,33.5 Z M 39.5,32.5 C 40.8333,32.5 42.1667,32.5 43.5,32.5C 41.9982,35.0219 40.6649,35.0219 39.5,32.5 Z M 23.5,33.5 C 25.1172,34.038 26.7839,34.3713 28.5,34.5C 28.5,35.1667 28.5,35.8333 28.5,36.5C 26.7839,36.6287 25.1172,36.962 23.5,37.5C 24.8333,36.1667 24.8333,34.8333 23.5,33.5 Z M 61.5,34.5 C 63.3407,35.4023 64.674,36.7356 65.5,38.5C 64.6236,38.3691 63.9569,38.7025 63.5,39.5C 64.5202,41.4325 64.6869,43.4325 64,45.5C 63.0997,41.8292 62.2663,38.1625 61.5,34.5 Z M 28.5,36.5 C 29.8221,36.67 30.9887,36.3366 32,35.5C 32.3619,39.4961 30.8619,40.3295 27.5,38C 28.056,37.6174 28.3893,37.1174 28.5,36.5 Z M 44.5,35.5 C 49.5917,35.4968 49.5917,36.3301 44.5,38C 41.8333,38.6667 39.1667,38.6667 36.5,38C 39.5224,37.9016 42.1891,37.0682 44.5,35.5 Z"/></g>
</svg>
